<svg id="a3a8abef-4361-47c1-8eb1-96c8fb45df32" data-name="Capa 1" xmlns="http://www.w3.org/2000/svg" viewBox="0 0 295.4 43.4"><defs><style>.afddf3f5-ce99-4758-8afc-bfbc5fb4928c{fill:#fff;}</style></defs><path class="afddf3f5-ce99-4758-8afc-bfbc5fb4928c" d="M122.9,251.5a1.7,1.7,0,0,1-1.9-1.8c0-2.3-.1-4.7-.2-7.4s-.1-5.3-.2-8.1l-.2-8.1c-.1-1.7-.1-3.3-.2-4.9l-7,19.7a.5.5,0,0,1-.5.3h-4.1c-.7,0-1.2-.2-1.4-.6a5.4,5.4,0,0,1-.6-1.1L100,221.1c-.1,1.7-.1,3.4-.2,5.2l-.2,8.4c-.1,2.8-.1,5.6-.2,8.4s-.1,5.3-.1,7.7a.5.5,0,0,1-.5.5H94.4a1.7,1.7,0,0,1-1.9-1.8c.1-6.3.3-12.7.6-19s.6-13,1-19.9a.5.5,0,0,1,.5-.5h6.1a2,2,0,0,1,2,1.7l7.5,21.2,8-22.5a.5.5,0,0,1,.5-.3h5.7a2,2,0,0,1,1.4.5,2.2,2.2,0,0,1,.5,1.3c.4,6.4.8,12.8,1,19.2s.4,13,.5,19.7c0,.1-.1.3-.1.4h-4.8Z" transform="translate(-92.1 -209.2)"/><path class="afddf3f5-ce99-4758-8afc-bfbc5fb4928c" d="M124.5,210.8a1.1,1.1,0,0,1,1,.4,1.7,1.7,0,0,1,.3,1c.4,6.4.8,12.8,1,19.1s.4,12.9.5,19.7h-4.5c-.9,0-1.4-.4-1.4-1.3s-.1-4.7-.2-7.4-.1-5.3-.2-8.1-.2-5.4-.2-8.1-.2-5.2-.2-7.5l-7.9,22.2h-4.1a1.1,1.1,0,0,1-1-.4,4.6,4.6,0,0,1-.5-1l-7.5-20.9c-.1,2.4-.2,5-.2,7.8s-.2,5.6-.2,8.4-.1,5.6-.2,8.4-.1,5.3-.1,7.7H94.5c-.9,0-1.4-.4-1.4-1.3.1-6.3.3-12.6.6-19s.6-13,1-19.9h6.1c.7,0,1.2.4,1.6,1.3l8,22.5,8.5-23.8,5.6.2m0-1h-5.7a1,1,0,0,0-.9.7l-7.5,21.2-7.1-19.8a2.6,2.6,0,0,0-2.5-2H94.7a1,1,0,0,0-1,.9c-.4,6.9-.7,13.5-1,19.9s-.5,12.7-.6,19a2.3,2.3,0,0,0,2.4,2.4h4.4a1,1,0,0,0,1-1c0-2.4,0-5,.1-7.7s.1-5.6.2-8.4.2-5.6.2-8.4c0-.9.1-1.7.1-2.5l5.7,15.9a6.7,6.7,0,0,0,.6,1.2,2.2,2.2,0,0,0,1.8.8h4.1a1,1,0,0,0,.9-.7l6.2-17.2a18.5,18.5,0,0,0,.1,2.3l.2,7v1.1c.1,2.7.1,5.4.2,8.1s.1,5.1.2,7.4a2.2,2.2,0,0,0,2.4,2.3h4.5a1,1,0,0,0,1-1c-.1-6.7-.2-13.3-.5-19.7s-.6-12.8-1-19.2a2.8,2.8,0,0,0-.6-1.6,1.7,1.7,0,0,0-1.8-1Z" transform="translate(-92.1 -209.2)"/><path class="afddf3f5-ce99-4758-8afc-bfbc5fb4928c" d="M136.4,251.5a1.7,1.7,0,0,1-1.9-1.8V210.9a.5.5,0,0,1,.5-.5h4.7a1.7,1.7,0,0,1,1.9,1.8V251a.5.5,0,0,1-.5.5Z" transform="translate(-92.1 -209.2)"/><path class="afddf3f5-ce99-4758-8afc-bfbc5fb4928c" d="M139.7,210.8c.9,0,1.4.4,1.4,1.3v38.8h-4.7c-.9,0-1.4-.4-1.4-1.3V210.8h4.7m0-1H135a1,1,0,0,0-1,1v38.8a2.2,2.2,0,0,0,2.4,2.3h4.7a1,1,0,0,0,1-1V212.1a2.2,2.2,0,0,0-2.4-2.3Z" transform="translate(-92.1 -209.2)"/><path class="afddf3f5-ce99-4758-8afc-bfbc5fb4928c" d="M164.5,252.1a22.1,22.1,0,0,1-7.8-1.2,10.8,10.8,0,0,1-5.2-3.9,16.7,16.7,0,0,1-2.8-6.6,43.7,43.7,0,0,1-.8-9.5,46.4,46.4,0,0,1,.9-9.9,16.7,16.7,0,0,1,2.9-6.6,11.3,11.3,0,0,1,5.1-3.7,22.4,22.4,0,0,1,7.3-1.1,27.9,27.9,0,0,1,5.3.4l3.4.9c.6.2,1,.5,1.1.9a2.9,2.9,0,0,1,.3,1.4v2.6l-.2.4h-.4l-4.1-.4-4.4-.2a16.5,16.5,0,0,0-4.8.6,6.3,6.3,0,0,0-3,2.1,11.9,11.9,0,0,0-1.7,4.4,40,40,0,0,0-.5,7.6,43.2,43.2,0,0,0,.6,8.1,11.6,11.6,0,0,0,1.8,4.6,5.2,5.2,0,0,0,3,2.1,14.2,14.2,0,0,0,4.4.6h2.5l1.7-.2V235h-4.5a1.7,1.7,0,0,1-1.2-.5,1.9,1.9,0,0,1-.5-1.3v-3.6a.5.5,0,0,1,.5-.5h10.4a1.7,1.7,0,0,1,1.9,1.8v18.8a.5.5,0,0,1-.3.5,34.8,34.8,0,0,1-10.9,1.9Z" transform="translate(-92.1 -209.2)"/><path class="afddf3f5-ce99-4758-8afc-bfbc5fb4928c" d="M164.1,210.2a26.8,26.8,0,0,1,5.2.4,18,18,0,0,1,3.3.9c.5.2.8.4.9.7a4.5,4.5,0,0,1,.1,1.3v2.6l-4.1-.4-4.5-.2a18,18,0,0,0-5,.6,5.8,5.8,0,0,0-3.2,2.3A12.3,12.3,0,0,0,155,223a40,40,0,0,0-.5,7.6,45.1,45.1,0,0,0,.6,8.2,12,12,0,0,0,1.9,4.8,6.2,6.2,0,0,0,3.2,2.3,15.3,15.3,0,0,0,4.5.6h2.5a11.8,11.8,0,0,0,2.1-.3V234.7h-5a1.1,1.1,0,0,1-.9-.4,1.5,1.5,0,0,1-.3-1v-3.6h10.4c.9,0,1.4.4,1.4,1.3v18.8a27.7,27.7,0,0,1-4.8,1.3,34.5,34.5,0,0,1-5.7.5,21.3,21.3,0,0,1-7.6-1.2,11,11,0,0,1-5-3.7,15,15,0,0,1-2.7-6.4,49.9,49.9,0,0,1-.8-9.4,45.4,45.4,0,0,1,.9-9.8,15.7,15.7,0,0,1,2.8-6.4,10.8,10.8,0,0,1,4.9-3.5,25,25,0,0,1,7.2-1m0-1a23.7,23.7,0,0,0-7.5,1.1,12.7,12.7,0,0,0-5.3,3.8,15.8,15.8,0,0,0-3,6.8,47.4,47.4,0,0,0-.9,10,44.1,44.1,0,0,0,.9,9.6,18.4,18.4,0,0,0,2.9,6.8,12,12,0,0,0,5.4,4,23.2,23.2,0,0,0,8,1.2,36.1,36.1,0,0,0,5.9-.5,33.1,33.1,0,0,0,5-1.3,1,1,0,0,0,.7-.9V231a2.2,2.2,0,0,0-2.4-2.3H163.3a1,1,0,0,0-1,1v3.6a2.1,2.1,0,0,0,2.2,2.3h4v9.6h-3.7a18.1,18.1,0,0,1-4.3-.5,5.2,5.2,0,0,1-2.7-1.9,10.6,10.6,0,0,1-1.7-4.4,42.7,42.7,0,0,1-.6-8,49.1,49.1,0,0,1,.5-7.5,10.2,10.2,0,0,1,1.6-4.2,5.2,5.2,0,0,1,2.7-1.9,15.3,15.3,0,0,1,4.7-.6l4.4.2,4,.4h.1l.7-.2a1.1,1.1,0,0,0,.3-.8v-2.6a4.3,4.3,0,0,0-.3-1.7,2.4,2.4,0,0,0-1.4-1.2l-3.5-1c-1.4-.1-3.2-.3-5.2-.3Z" transform="translate(-92.1 -209.2)"/><path class="afddf3f5-ce99-4758-8afc-bfbc5fb4928c" d="M195.6,252.1a21.2,21.2,0,0,1-5.9-.7,9.8,9.8,0,0,1-4.4-2.6,11.2,11.2,0,0,1-2.7-4.8,25,25,0,0,1-.9-7.3v-26a.5.5,0,0,1,.5-.5h4.7a1.7,1.7,0,0,1,1.9,1.8v25.3a20.5,20.5,0,0,0,.3,3.7,7.2,7.2,0,0,0,1,2.7,5.3,5.3,0,0,0,2,1.6,8.8,8.8,0,0,0,3.5.6,8.3,8.3,0,0,0,3.4-.6,5.3,5.3,0,0,0,2-1.6,6.7,6.7,0,0,0,1-2.6,21.7,21.7,0,0,0,.3-3.8V210.8a.5.5,0,0,1,.5-.5h4.7a1.9,1.9,0,0,1,1.3.5,1.6,1.6,0,0,1,.5,1.4v24.6c0,5.2-1.1,9.1-3.2,11.6S200.5,252.1,195.6,252.1Z" transform="translate(-92.1 -209.2)"/><path class="afddf3f5-ce99-4758-8afc-bfbc5fb4928c" d="M207.5,210.8a1.2,1.2,0,0,1,1,.4,1.5,1.5,0,0,1,.4,1v24.6c0,5.1-1,8.9-3.1,11.2s-5.5,3.6-10.2,3.6a20.5,20.5,0,0,1-5.8-.7,9.7,9.7,0,0,1-4.2-2.4,11.3,11.3,0,0,1-2.6-4.6,24.1,24.1,0,0,1-.9-7.1v-26h4.7c.9,0,1.4.4,1.4,1.3v25.3a22.5,22.5,0,0,0,.3,3.8,8.3,8.3,0,0,0,1.1,2.9,4.9,4.9,0,0,0,2.2,1.8,9.5,9.5,0,0,0,3.7.6,9,9,0,0,0,3.6-.6,4.9,4.9,0,0,0,2.2-1.8,7.8,7.8,0,0,0,1.1-2.8,22.1,22.1,0,0,0,.3-3.9V210.9h4.8m0-1h-4.7a1,1,0,0,0-1,1v26.5a20.5,20.5,0,0,1-.3,3.7,5.3,5.3,0,0,1-1,2.4,3.7,3.7,0,0,1-1.8,1.4,7.4,7.4,0,0,1-3.2.5,9.5,9.5,0,0,1-3.3-.5,3.7,3.7,0,0,1-1.8-1.4,6.3,6.3,0,0,1-1-2.5,20.2,20.2,0,0,1-.3-3.6V212a2.2,2.2,0,0,0-2.4-2.3H182a1,1,0,0,0-1,1v26a26.3,26.3,0,0,0,.9,7.4,11.8,11.8,0,0,0,2.9,5,9.6,9.6,0,0,0,4.7,2.7,22.3,22.3,0,0,0,6,.8c5,0,8.7-1.3,10.9-3.9s3.3-6.6,3.3-11.9V212.2a2.3,2.3,0,0,0-.7-1.7,1.6,1.6,0,0,0-1.5-.7Z" transform="translate(-92.1 -209.2)"/><path class="afddf3f5-ce99-4758-8afc-bfbc5fb4928c" d="M218.1,251.5a1.7,1.7,0,0,1-1.9-1.8V210.9a.5.5,0,0,1,.5-.5H238a1.6,1.6,0,0,1,1.8,1.8v3.6a.5.5,0,0,1-.5.5H223.2v11.3h13.4a1.6,1.6,0,0,1,1.8,1.8v3.7a.5.5,0,0,1-.5.5H223.3v11.9h15.4a2.2,2.2,0,0,1,1.4.5,1.6,1.6,0,0,1,.5,1.4v3.7a.5.5,0,0,1-.5.5h-22Z" transform="translate(-92.1 -209.2)"/><path class="afddf3f5-ce99-4758-8afc-bfbc5fb4928c" d="M238.1,210.8c.9,0,1.3.4,1.3,1.3v3.6H222.8V228h13.8c.9,0,1.3.4,1.3,1.3V233H222.8v12.8h15.9a1.2,1.2,0,0,1,1,.4,1.5,1.5,0,0,1,.4,1v3.6h-22c-.9,0-1.4-.4-1.4-1.3V210.7h21.4m0-1H216.8a1,1,0,0,0-1,1v38.8a2.2,2.2,0,0,0,2.4,2.3h22a.9.9,0,0,0,1-1v-3.6a2.3,2.3,0,0,0-.7-1.7,2.4,2.4,0,0,0-1.7-.6H223.9V234.2H238a.9.9,0,0,0,1-1v-3.7a2.2,2.2,0,0,0-2.3-2.3H224V216.9h15.6a1,1,0,0,0,1-1v-3.6c-.2-1.6-1.1-2.5-2.5-2.5Z" transform="translate(-92.1 -209.2)"/><path class="afddf3f5-ce99-4758-8afc-bfbc5fb4928c" d="M247.9,251.5a1.7,1.7,0,0,1-1.9-1.8V210.9a.5.5,0,0,1,.5-.5h4.7a1.7,1.7,0,0,1,1.3.5,1.6,1.6,0,0,1,.5,1.4v33.2h13.8a1.7,1.7,0,0,1,1.9,1.8v3.8a.5.5,0,0,1-.5.5Z" transform="translate(-92.1 -209.2)"/><path class="afddf3f5-ce99-4758-8afc-bfbc5fb4928c" d="M251.2,210.8a1.2,1.2,0,0,1,1,.4,1.5,1.5,0,0,1,.4,1v33.7h14.2c.9,0,1.4.4,1.4,1.3V251H247.9c-.9,0-1.4-.4-1.4-1.3V210.9h4.7m0-1h-4.7a1,1,0,0,0-1,1v38.8a2.2,2.2,0,0,0,2.4,2.3h20.3a1,1,0,0,0,1-1v-3.8a2.2,2.2,0,0,0-2.4-2.3H253.6V212.1a2.3,2.3,0,0,0-.7-1.7,2.5,2.5,0,0,0-1.7-.6Z" transform="translate(-92.1 -209.2)"/><path class="afddf3f5-ce99-4758-8afc-bfbc5fb4928c" d="M277.6,251h-2.5a.8.8,0,0,1-.9-.9V211.5l2.4-.4a24,24,0,0,1,2.8-.3l3-.2h3c4.6,0,7.9,1,10.1,3s3.2,5.3,3.2,9.9a20.3,20.3,0,0,1-.8,6,10.7,10.7,0,0,1-2.4,4,8.7,8.7,0,0,1-3.7,2.2,18.1,18.1,0,0,1-4.9.7l-4.1-.2a34.3,34.3,0,0,1-5-.8Zm0-18.7a30.7,30.7,0,0,0,4.2.7c1.4.1,2.9.3,4.4.3a11.5,11.5,0,0,0,3.9-.5,5.6,5.6,0,0,0,2.8-1.6,8.7,8.7,0,0,0,1.7-3,15.3,15.3,0,0,0,.6-4.7,15.6,15.6,0,0,0-.7-5.2,6.5,6.5,0,0,0-1.9-3,6.3,6.3,0,0,0-3.1-1.4,24.8,24.8,0,0,0-4.1-.4l-4.6.2-3.3.4v18.2Z" transform="translate(-92.1 -209.2)"/><path class="afddf3f5-ce99-4758-8afc-bfbc5fb4928c" d="M326.7,251h-20a.8.8,0,0,1-.9-.9V210.8h2.5a.8.8,0,0,1,.9.9V248h16.6a.8.8,0,0,1,.9.9Z" transform="translate(-92.1 -209.2)"/><path class="afddf3f5-ce99-4758-8afc-bfbc5fb4928c" d="M355.4,251H333.7a.8.8,0,0,1-.9-.9V210.8h21a.8.8,0,0,1,.9.9v2.1H336.2v15.5h16.3a.8.8,0,0,1,.9.9v2.1H336.3v15.6h18.3a.8.8,0,0,1,.9.9V251Z" transform="translate(-92.1 -209.2)"/><path class="afddf3f5-ce99-4758-8afc-bfbc5fb4928c" d="M384.5,251q-.6,0-.9-.9a64.6,64.6,0,0,0-3.7-8.5,50.9,50.9,0,0,0-6.3-9.3,37.5,37.5,0,0,0-3.6,4.8c-1,1.6-2,3.1-2.8,4.7s-1.5,3.1-2.1,4.6-1.2,3-1.7,4.6h-2.7a.7.7,0,0,1-.4-.7,3.6,3.6,0,0,1,.3-1.1l1.6-4a39.4,39.4,0,0,1,2.3-4.6c.9-1.6,1.9-3.3,3-5a45.3,45.3,0,0,1,4-5.2c-1-1.2-2-2.5-3.1-4.1s-2.2-3.2-3.2-5a53.6,53.6,0,0,1-2.8-5.3,37.1,37.1,0,0,1-2-5h2.9q.6,0,.9.9c.5,1.3,1.1,2.7,1.8,4.1a49.2,49.2,0,0,0,2.4,4.5l2.7,4.3a39.6,39.6,0,0,0,2.8,3.7c.9-1.1,1.9-2.4,2.9-3.9s2-3,2.9-4.6l2.5-4.7a19.2,19.2,0,0,0,1.6-4.3h2.7a.7.7,0,0,1,.4.7,3.6,3.6,0,0,1-.3,1.1c-.6,1.5-1.3,3.1-2.1,4.7s-1.7,3.2-2.7,4.8a50.2,50.2,0,0,1-3,4.5l-2.8,3.7a52.9,52.9,0,0,1,4.4,5.9c1.2,1.9,2.4,3.8,3.3,5.6a53.4,53.4,0,0,1,2.3,5l1.5,4.1Z" transform="translate(-92.1 -209.2)"/></svg>